<svg xmlns="http://www.w3.org/2000/svg" height="24" viewBox="0 -960 960 960" width="24"><path d="M194.28-216.5q-24.218 0-40.749-16.531Q137-249.562 137-273.802v-412.396q0-24.24 16.531-40.771Q170.062-743.5 194.28-743.5h571.44q24.218 0 40.749 16.531Q823-710.438 823-686.198v412.396q0 24.24-16.531 40.771Q789.938-216.5 765.72-216.5H194.28ZM480-488.25 162.5-698.5V-274q0 14 9 23t23 9h571q14 0 23-9t9-23v-424.5L480-488.25Zm0-31.25L781-718H179l301 198.5Zm-317.5-179V-718v444q0 14 9 23t23 9h-32v-456.5Z"/></svg>