<svg xmlns="http://www.w3.org/2000/svg" height="24" viewBox="0 -960 960 960" width="24"><path d="M313.283-97q-24.221 0-40.752-16.531Q256-130.062 256-154.252v-651.496q0-24.19 16.531-40.721Q289.062-863 313.283-863h333.434q24.221 0 40.752 16.531Q704-829.938 704-805.748v651.496q0 24.19-16.531 40.721Q670.938-97 646.717-97H313.283ZM281.5-266.5v112q0 12 10 22t22 10h333q12 0 22-10t10-22v-112h-397ZM479.947-167q11.053 0 19.303-8.197 8.25-8.198 8.25-19.25 0-11.053-8.197-19.303-8.198-8.25-19.25-8.25-11.053 0-19.303 8.197-8.25 8.198-8.25 19.25 0 11.053 8.197 19.303 8.198 8.25 19.25 8.25ZM281.5-292h397v-453h-397v453Zm0-478.5h397v-35q0-12-10-22t-22-10h-333q-12 0-22 10t-10 22v35Zm0 504v144-144Zm0-504v-67 67Z"/></svg>